# xmcd CD database file
#
# Track frame offsets:
#	150
#	28803
#	55605
#	80969
#	109178
#	139313
#	172923
#	195045
#	219889
#
# Disc length: 3240 seconds
#
# Revision: 0
# Processed by: cddbd v1.5.2PL0 Copyright (c) Steve Scherf et al.
# Submitted via: CDex 1.70beta2
#
DISCID=730ca609
DTITLE=Emil Kowalski, L Mozdzer, C Paciorek, J Mackiewicz, A Czerwinski - Children of Bird
DYEAR=1999
DGENRE=Jazz
TTITLE0=Moose the mooche
TTITLE1=My little suede shoes
TTITLE2=Parker's <ppd
TTITLE3=Red cross
TTITLE4=How deep is the ocean
TTITLE5=Barbados
TTITLE6=Donna Lee
TTITLE7=Diverse
TTITLE8=Parker"s mood  (another take)
EXTD=YEAR: 1999
EXTT0=
EXTT1=
EXTT2=
EXTT3=
EXTT4=
EXTT5=
EXTT6=
EXTT7=
EXTT8=
PLAYORDER=
